<svg width="128" height="128" viewBox="0 0 128 128" fill="none" xmlns="http://www.w3.org/2000/svg">
<path d="M21.3333 42.6666H106.667M42.6666 21.3333V42.6666M21.3333 26.6666C21.3333 25.2522 21.8952 23.8956 22.8954 22.8954C23.8956 21.8952 25.2522 21.3333 26.6666 21.3333H101.333C102.748 21.3333 104.104 21.8952 105.105 22.8954C106.105 23.8956 106.667 25.2522 106.667 26.6666V101.333C106.667 102.748 106.105 104.104 105.105 105.105C104.104 106.105 102.748 106.667 101.333 106.667H26.6666C25.2522 106.667 23.8956 106.105 22.8954 105.105C21.8952 104.104 21.3333 102.748 21.3333 101.333V26.6666Z" stroke="#040404" stroke-width="2" stroke-linecap="round" stroke-linejoin="round"/>
<path d="M50.6666 77.3333L58.6666 85.3333L74.6666 69.3333" stroke="#040404" stroke-width="2" stroke-linecap="round" stroke-linejoin="round"/>
</svg>
