<svg width="30" height="30" viewBox="0 0 30 30" fill="none" xmlns="http://www.w3.org/2000/svg">
<path d="M3.75 26.25L11.25 18.75M17.5 3.75C16.3509 3.75 15.2131 3.97633 14.1515 4.41605C13.0899 4.85578 12.1253 5.5003 11.3128 6.31282C10.5003 7.12533 9.85578 8.08992 9.41605 9.15152C8.97632 10.2131 8.75 11.3509 8.75 12.5C8.75 13.6491 8.97632 14.7869 9.41605 15.8485C9.85578 16.9101 10.5003 17.8747 11.3128 18.6872C12.1253 19.4997 13.0899 20.1442 14.1515 20.5839C15.2131 21.0237 16.3509 21.25 17.5 21.25C18.6491 21.25 19.7869 21.0237 20.8485 20.5839C21.9101 20.1442 22.8747 19.4997 23.6872 18.6872C24.4997 17.8747 25.1442 16.9101 25.5839 15.8485C26.0237 14.7869 26.25 13.6491 26.25 12.5C26.25 11.3509 26.0237 10.2131 25.5839 9.15152C25.1442 8.08992 24.4997 7.12533 23.6872 6.31282C22.8747 5.5003 21.9101 4.85578 20.8485 4.41605C19.7869 3.97633 18.6491 3.75 17.5 3.75Z" stroke="black" stroke-width="2" stroke-linecap="round" stroke-linejoin="round"/>
</svg>
