<svg width="128" height="128" viewBox="0 0 128 128" fill="none" xmlns="http://www.w3.org/2000/svg">
<path d="M90.6665 53.3334L82.5 21.3334H47.9998L37.3332 53.3334M26.6718 42.6667H101.333C102.871 42.6665 104.391 42.9989 105.788 43.6411C107.186 44.2833 108.428 45.2201 109.429 46.3873C110.431 47.5544 111.168 48.9244 111.591 50.4032C112.013 51.882 112.111 53.4346 111.877 54.9547L105.184 93.0987C104.603 96.8771 102.688 100.323 99.7865 102.811C96.8848 105.3 93.188 106.668 89.3652 106.667H38.6345C34.8126 106.667 31.1171 105.298 28.2165 102.81C25.316 100.321 23.4021 96.8762 22.8212 93.0987L16.1278 54.9547C15.8941 53.4346 15.9918 51.882 16.4143 50.4032C16.8368 48.9244 17.574 47.5544 18.5756 46.3873C19.5771 45.2201 20.8191 44.2833 22.2166 43.6411C23.6141 42.9989 25.1339 42.6665 26.6718 42.6667Z" stroke="black" stroke-width="2" stroke-linecap="round" stroke-linejoin="round"/>
</svg>
