<svg width="128" height="128" viewBox="0 0 128 128" fill="none" xmlns="http://www.w3.org/2000/svg">
<path d="M16 37.3333C16 34.5043 17.1238 31.7912 19.1242 29.7908C21.1246 27.7904 23.8377 26.6666 26.6667 26.6666H101.333C104.162 26.6666 106.875 27.7904 108.876 29.7908C110.876 31.7912 112 34.5043 112 37.3333V90.6666C112 93.4956 110.876 96.2087 108.876 98.2091C106.875 100.209 104.162 101.333 101.333 101.333H26.6667C23.8377 101.333 21.1246 100.209 19.1242 98.2091C17.1238 96.2087 16 93.4956 16 90.6666V37.3333Z" stroke="black" stroke-width="2" stroke-linecap="round" stroke-linejoin="round"/>
<path d="M16 37.3333L64 69.3333L112 37.3333" stroke="black" stroke-width="2" stroke-linecap="round" stroke-linejoin="round"/>
</svg>
