<svg width="128" height="128" viewBox="0 0 128 128" fill="none" xmlns="http://www.w3.org/2000/svg">
<path d="M64 98.6667L48 90.6667M48 90.6667L16 106.667V37.3334L48 21.3334M48 90.6667V21.3334M48 21.3334L80 37.3334M80 37.3334L112 21.3334V61.3334M80 37.3334V66.6667M101.333 96V96.0534M112.645 107.312C114.883 105.075 116.408 102.224 117.026 99.1198C117.643 96.016 117.327 92.7987 116.116 89.8748C114.905 86.9509 112.854 84.4518 110.223 82.6934C107.592 80.9351 104.498 79.9966 101.333 79.9966C98.1686 79.9966 95.075 80.9351 92.4437 82.6934C89.8124 84.4518 87.7617 86.9509 86.5508 89.8748C85.3399 92.7987 85.0234 96.016 85.6411 99.1198C86.2589 102.224 87.7832 105.075 90.0213 107.312C92.2507 109.547 96.0213 112.885 101.333 117.333C106.939 112.587 110.715 109.248 112.645 107.312Z" stroke="black" stroke-width="2" stroke-linecap="round" stroke-linejoin="round"/>
</svg>
